# xmcd
#
# Track frame offsets: 
#        150
#        29907
#        56375
#        78842
#        101467
#        127205
#        149440
#        171025
#        196540
#        219810
#        247650
#        277755
#        299935
#
# Disc length: 4421 seconds
#
# Revision: 1
# Processed by: cddbd v1.5.2PL0 Copyright (c) Steve Scherf et al.
# Submitted via: ExactAudioCopy v0.99pb3
#
DISCID=b711430d
DTITLE=Various Artist - Maharaja Night 15
DYEAR=1995
DGENRE=Eurobeat
TTITLE0=Wain L - On The Road
TTITLE1=Derreck Simons - Generation
TTITLE2=Gino Caria - Got To Do It
TTITLE3=Pleasure and Pain - Brother Nightmare
TTITLE4=Queen Of Times - I Need A Change
TTITLE5=Ken Hunter - Bora Bora
TTITLE6=Wilma - Walking On The Dyno
TTITLE7=Norma Sheffield - Love You Forever
TTITLE8=Angie Davies - Isla Bonita
TTITLE9=Groove Twins - Light Me With Desire
TTITLE10=DJ NRG - Burning Out
TTITLE11=Robert Patton - All Right - Hey Hey
TTITLE12=Annalise - Take All My Heart
EXTD=YEAR: 1995
EXTT0=
EXTT1=
EXTT2=
EXTT3=
EXTT4=
EXTT5=
EXTT6=
EXTT7=
EXTT8=
EXTT9=
EXTT10=
EXTT11=
EXTT12=
PLAYORDER=
